<svg width="22" height="22" viewBox="0 0 22 22" fill="none" xmlns="http://www.w3.org/2000/svg">
<path d="M21.1998 7.0252V15.1586C21.2082 15.3121 21.1732 15.4649 21.099 15.5996C21.0248 15.7343 20.9142 15.8454 20.7798 15.9203L12.3437 20.6801C11.9727 20.8894 11.554 20.9996 11.128 21C10.702 21.0004 10.2832 20.8911 9.91173 20.6825L1.42234 15.9215C1.28497 15.8452 1.17238 15.7311 1.09795 15.5927C1.02351 15.4543 0.990359 15.2975 1.00242 15.1408V7.04649C0.990614 6.89219 1.02266 6.7377 1.09486 6.60082C1.16707 6.46395 1.27649 6.35027 1.41051 6.2729L9.87506 1.33801C10.2551 1.11624 10.6874 0.999585 11.1274 1C11.5675 1.00042 11.9995 1.11789 12.3792 1.34038L20.7917 6.2729C20.9222 6.34869 21.0292 6.45904 21.101 6.59178C21.1728 6.72452 21.2066 6.8745 21.1986 7.0252H21.1998Z" stroke="#0255F1" stroke-width="1.5"/>
<path d="M1.42223 7.70771C1.29529 7.63638 1.18945 7.53278 1.1154 7.40741C1.04135 7.28204 1.00172 7.13934 1.00052 6.99374C0.999316 6.84813 1.03659 6.7048 1.10856 6.57822C1.18054 6.45165 1.28466 6.34632 1.4104 6.2729L9.87495 1.33801C10.255 1.11624 10.6873 0.999585 11.1273 1C11.5674 1.00042 11.9994 1.11789 12.3791 1.34038L20.7916 6.2729C20.917 6.3464 21.0209 6.45169 21.0927 6.57814C21.1645 6.70459 21.2016 6.84774 21.2004 6.99314C21.1992 7.13854 21.1597 7.28105 21.0858 7.4063C21.012 7.53155 20.9064 7.63511 20.7797 7.70653L12.3436 12.4664C11.9727 12.6758 11.554 12.7862 11.1281 12.7868C10.7021 12.7874 10.2831 12.6783 9.91162 12.4699L1.42223 7.70771Z" stroke="#0255F1" stroke-width="1.5"/>
</svg>
