<svg width="25" height="24" viewBox="0 0 25 24" fill="none" xmlns="http://www.w3.org/2000/svg">
<path d="M23.5571 14.7958L23.5572 10.1501C23.5572 7.38867 21.3186 5.15008 18.5572 5.15008H17.9851H18.5572C21.3186 5.15008 23.5572 7.38867 23.5572 10.1501L23.5571 14.7958ZM23.5571 14.7958L23.5571 17.5913C23.5571 20.3528 21.3185 22.5913 18.5571 22.5913H10.6503C8.3582 22.5913 6.50011 20.7332 6.5001 18.4412V18.4412C6.50011 20.7332 8.3582 22.5913 10.6503 22.5913H18.5571C21.3185 22.5913 23.5571 20.3528 23.5571 17.5913L23.5571 14.7958ZM5.15017 18.4412L13.057 18.4412C15.8184 18.4412 18.057 16.2026 18.057 13.4412L18.057 10.6456L18.0571 5.99995C18.0571 3.23852 15.8185 0.999935 13.0571 0.999935L5.15015 0.999935V0.999935C2.85809 0.999935 1 2.85802 1 5.15008L1 5.99995L1 14.291C1.00001 16.5831 2.8581 18.4412 5.15017 18.4412Z" stroke="black" stroke-width="1.5"/>
</svg>
