<svg width="17" height="22" viewBox="0 0 17 22" fill="none" xmlns="http://www.w3.org/2000/svg">
<path d="M11 1L1 11.7692H9.46154L4.84615 21L16 8.69231H7.92308L11 1Z" fill="#1E1E1E"/>
<path d="M11 1L11.4642 1.1857C11.5537 0.96205 11.471 0.70641 11.2675 0.577556C11.064 0.448702 10.7975 0.483264 10.6336 0.659774L11 1ZM1 11.7692L0.633603 11.429C0.498284 11.5747 0.46219 11.7868 0.541681 11.9691C0.621172 12.1514 0.801133 12.2692 1 12.2692V11.7692ZM9.46154 11.7692L9.90875 11.9928L10.2706 11.2692H9.46154V11.7692ZM4.84615 21L4.39894 20.7764C4.28719 20.9999 4.3576 21.2716 4.56385 21.4127C4.7701 21.5538 5.04884 21.5209 5.21665 21.3358L4.84615 21ZM16 8.69231L16.3705 9.02807C16.5033 8.88152 16.5372 8.67047 16.4571 8.48968C16.377 8.30888 16.1978 8.19231 16 8.19231V8.69231ZM7.92308 8.69231L7.45884 8.50661L7.18456 9.19231H7.92308V8.69231ZM10.6336 0.659774L0.633603 11.429L1.3664 12.1095L11.3664 1.34023L10.6336 0.659774ZM1 12.2692H9.46154V11.2692H1V12.2692ZM9.01433 11.5456L4.39894 20.7764L5.29337 21.2236L9.90875 11.9928L9.01433 11.5456ZM5.21665 21.3358L16.3705 9.02807L15.6295 8.35655L4.47566 20.6642L5.21665 21.3358ZM16 8.19231H7.92308V9.19231H16V8.19231ZM8.38732 8.878L11.4642 1.1857L10.5358 0.814305L7.45884 8.50661L8.38732 8.878Z" fill="#1E1E1E"/>
</svg>
