<svg width="18" height="20" viewBox="0 0 18 20" fill="none" xmlns="http://www.w3.org/2000/svg">
<path d="M7.64402 0.0778616C7.76873 0.00324642 7.91794 -0.0188593 8.05893 0.0163933L11.7876 0.946101C11.9224 0.980052 12.0392 1.06385 12.1146 1.18058C12.19 1.29731 12.2183 1.43828 12.1938 1.57505C14.7897 2.79015 16.7216 4.79116 17.4789 7.04463C17.518 7.16099 17.5169 7.28706 17.4758 7.40272C17.4348 7.51837 17.3562 7.61694 17.2525 7.68266C17.1489 7.74838 17.0262 7.77747 16.9041 7.76528C16.782 7.75309 16.6675 7.70033 16.5789 7.61541C15.2507 6.34214 13.512 5.23242 11.4836 4.43004L11.4561 4.5398C11.4209 4.68097 11.331 4.80236 11.2063 4.87728C11.0815 4.95221 10.9322 4.97453 10.791 4.93935L10.2586 4.80763L9.26305 8.80087C9.40422 8.83613 9.52561 8.92601 9.60053 9.05074C9.67545 9.17548 9.69778 9.32486 9.66259 9.46605L7.1402 19.5842C7.10494 19.7253 7.01506 19.8467 6.89033 19.9216C6.76559 19.9966 6.61621 20.0189 6.47502 19.9837L3.81213 19.3196C3.67096 19.2844 3.54957 19.1945 3.47464 19.0698C3.39972 18.945 3.3774 18.7956 3.41258 18.6545L5.93498 8.53634C5.97024 8.39517 6.06011 8.27378 6.18485 8.19886C6.30958 8.12393 6.45896 8.10161 6.60015 8.13679L7.59572 4.14355L7.06336 4.01073C6.99334 3.99328 6.92745 3.96219 6.86947 3.91925C6.81148 3.8763 6.76253 3.82234 6.72541 3.76046C6.6883 3.69857 6.66376 3.62998 6.65319 3.55859C6.64262 3.48721 6.64623 3.41445 6.66382 3.34446L6.69126 3.2347C4.5245 2.99102 2.46861 3.15457 0.698098 3.6551C0.580015 3.68847 0.454153 3.68131 0.340617 3.63476C0.22708 3.58821 0.13242 3.50495 0.0717568 3.39828C0.0110936 3.29162 -0.0120729 3.1677 0.00595811 3.04632C0.0239891 2.92494 0.0821774 2.81311 0.171228 2.72868C1.89673 1.09538 4.54206 0.234825 7.40473 0.379715C7.44564 0.253899 7.53061 0.145995 7.64402 0.0778616Z" fill="#0255F1"/>
</svg>
