<svg width="20" height="20" viewBox="0 0 20 20" fill="none" xmlns="http://www.w3.org/2000/svg">
<mask id="mask0_72_10" style="mask-type:alpha" maskUnits="userSpaceOnUse" x="0" y="0" width="20" height="20">
<rect width="20" height="20" fill="#D9D9D9"/>
</mask>
<g mask="url(#mask0_72_10)">
<path d="M7.91663 18.3337C6.87496 18.3337 5.98954 17.9691 5.26038 17.2399C4.53121 16.5107 4.16663 15.6253 4.16663 14.5837C4.16663 14.0975 4.28468 13.6496 4.52079 13.2399C4.7569 12.8302 5.1944 12.3059 5.83329 11.667C5.91663 11.5837 5.99649 11.4969 6.07288 11.4066C6.14927 11.3163 6.24996 11.1948 6.37496 11.042C5.66663 9.95866 5.12149 8.82324 4.73954 7.63574C4.3576 6.44824 4.16663 5.29199 4.16663 4.16699C4.16663 3.36144 4.31246 2.74338 4.60413 2.31283C4.89579 1.88227 5.30551 1.66699 5.83329 1.66699C6.62496 1.66699 7.33329 2.04894 7.95829 2.81283C8.58329 3.57671 9.05552 4.2781 9.37496 4.91699C9.49996 5.19477 9.61454 5.47602 9.71871 5.76074C9.82288 6.04546 9.91663 6.3406 9.99996 6.64616C10.0833 6.3406 10.177 6.04546 10.2812 5.76074C10.3854 5.47602 10.5069 5.19477 10.6458 4.91699C10.9513 4.2781 11.4166 3.57671 12.0416 2.81283C12.6666 2.04894 13.375 1.66699 14.1666 1.66699C14.6944 1.66699 15.1041 1.88227 15.3958 2.31283C15.6875 2.74338 15.8333 3.36144 15.8333 4.16699C15.8333 5.29199 15.6423 6.44824 15.2604 7.63574C14.8784 8.82324 14.3333 9.95866 13.625 11.042C13.75 11.1948 13.8507 11.3163 13.927 11.4066C14.0034 11.4969 14.0833 11.5837 14.1666 11.667C14.8055 12.3059 15.243 12.8302 15.4791 13.2399C15.7152 13.6496 15.8333 14.0975 15.8333 14.5837C15.8333 15.6253 15.4687 16.5107 14.7395 17.2399C14.0104 17.9691 13.125 18.3337 12.0833 18.3337C11.4583 18.3337 10.9548 18.2642 10.5729 18.1253L9.99996 17.917L9.42704 18.1253C9.0451 18.2642 8.54163 18.3337 7.91663 18.3337ZM7.91663 16.667C8.23607 16.667 8.55552 16.6288 8.87496 16.5524C9.1944 16.476 9.49302 16.3614 9.77079 16.2087C9.61802 16.1392 9.47913 16.0212 9.35413 15.8545C9.22913 15.6878 9.16663 15.542 9.16663 15.417C9.16663 15.3059 9.24649 15.2087 9.40621 15.1253C9.56593 15.042 9.76385 15.0003 9.99996 15.0003C10.2361 15.0003 10.434 15.042 10.5937 15.1253C10.7534 15.2087 10.8333 15.3059 10.8333 15.417C10.8333 15.542 10.7708 15.6878 10.6458 15.8545C10.5208 16.0212 10.3819 16.1392 10.2291 16.2087C10.5069 16.3614 10.8055 16.476 11.125 16.5524C11.4444 16.6288 11.7638 16.667 12.0833 16.667C12.6666 16.667 13.1597 16.4656 13.5625 16.0628C13.9652 15.66 14.1666 15.167 14.1666 14.5837C14.1666 14.3337 14.0972 14.0906 13.9583 13.8545C13.8194 13.6184 13.6111 13.3823 13.3333 13.1462C13.1388 12.9795 12.9791 12.8337 12.8541 12.7087C12.7291 12.5837 12.5277 12.3475 12.25 12.0003C11.8472 11.5142 11.5138 11.1982 11.25 11.0524C10.9861 10.9066 10.5694 10.8337 9.99996 10.8337C9.43052 10.8337 9.01038 10.9066 8.73954 11.0524C8.46871 11.1982 8.13885 11.5142 7.74996 12.0003C7.47218 12.3475 7.27079 12.5837 7.14579 12.7087C7.02079 12.8337 6.86107 12.9795 6.66663 13.1462C6.38885 13.3823 6.18051 13.6184 6.04163 13.8545C5.90274 14.0906 5.83329 14.3337 5.83329 14.5837C5.83329 15.167 6.03468 15.66 6.43746 16.0628C6.84024 16.4656 7.33329 16.667 7.91663 16.667ZM8.74996 13.9587C8.63885 13.9587 8.54163 13.8962 8.45829 13.7712C8.37496 13.6462 8.33329 13.5003 8.33329 13.3337C8.33329 13.167 8.37496 13.0212 8.45829 12.8962C8.54163 12.7712 8.63885 12.7087 8.74996 12.7087C8.86107 12.7087 8.95829 12.7712 9.04163 12.8962C9.12496 13.0212 9.16663 13.167 9.16663 13.3337C9.16663 13.5003 9.12496 13.6462 9.04163 13.7712C8.95829 13.8962 8.86107 13.9587 8.74996 13.9587ZM11.25 13.9587C11.1388 13.9587 11.0416 13.8962 10.9583 13.7712C10.875 13.6462 10.8333 13.5003 10.8333 13.3337C10.8333 13.167 10.875 13.0212 10.9583 12.8962C11.0416 12.7712 11.1388 12.7087 11.25 12.7087C11.3611 12.7087 11.4583 12.7712 11.5416 12.8962C11.625 13.0212 11.6666 13.167 11.6666 13.3337C11.6666 13.5003 11.625 13.6462 11.5416 13.7712C11.4583 13.8962 11.3611 13.9587 11.25 13.9587ZM7.56246 9.81283C7.71524 9.70171 7.88885 9.60449 8.08329 9.52116C8.27774 9.43783 8.49301 9.36144 8.72913 9.29199C8.70135 8.62533 8.60065 7.96213 8.42704 7.30241C8.25343 6.64269 8.03468 6.04199 7.77079 5.50033C7.5069 4.94477 7.21524 4.47602 6.89579 4.09408C6.57635 3.71213 6.2569 3.4656 5.93746 3.35449C5.90968 3.43783 5.88538 3.54546 5.86454 3.67741C5.84371 3.80935 5.83329 3.97255 5.83329 4.16699C5.83329 5.11144 5.9826 6.06977 6.28121 7.04199C6.57982 8.01421 7.0069 8.93783 7.56246 9.81283ZM12.4375 9.81283C12.993 8.93783 13.4201 8.01421 13.7187 7.04199C14.0173 6.06977 14.1666 5.11144 14.1666 4.16699C14.1666 3.97255 14.1562 3.80935 14.1354 3.67741C14.1145 3.54546 14.0902 3.43783 14.0625 3.35449C13.743 3.4656 13.4236 3.71213 13.1041 4.09408C12.7847 4.47602 12.493 4.94477 12.2291 5.50033C11.9791 6.04199 11.7673 6.64269 11.5937 7.30241C11.4201 7.96213 11.3125 8.62533 11.2708 9.29199C11.4791 9.34755 11.6805 9.42046 11.875 9.51074C12.0694 9.60102 12.2569 9.70171 12.4375 9.81283Z" fill="#0255F1"/>
</g>
</svg>
