<svg width="20" height="20" viewBox="0 0 20 20" fill="none" xmlns="http://www.w3.org/2000/svg">
<mask id="mask0_72_13" style="mask-type:alpha" maskUnits="userSpaceOnUse" x="0" y="0" width="20" height="20">
<rect width="20" height="20" rx="10" fill="#D9D9D9"/>
</mask>
<g mask="url(#mask0_72_13)">
<path d="M6.14579 17.5208C5.64579 17.5069 5.1701 17.3785 4.71871 17.1354C4.26732 16.8924 3.84024 16.5347 3.43746 16.0625C2.8819 15.3958 2.44788 14.6007 2.13538 13.6771C1.82288 12.7535 1.66663 11.8056 1.66663 10.8333C1.66663 9.68056 1.88538 8.59722 2.32288 7.58333C2.76038 6.56944 3.35413 5.6875 4.10413 4.9375C4.85413 4.1875 5.73607 3.59375 6.74996 3.15625C7.76385 2.71875 8.84718 2.5 9.99996 2.5C11.1527 2.5 12.2361 2.72222 13.25 3.16667C14.2638 3.61111 15.1458 4.21528 15.8958 4.97917C16.6458 5.74306 17.2395 6.63889 17.677 7.66667C18.1145 8.69444 18.3333 9.79861 18.3333 10.9792C18.3333 12.0486 18.1597 13.0486 17.8125 13.9792C17.4652 14.9097 16.9722 15.6944 16.3333 16.3333C15.9444 16.7222 15.5347 17.0174 15.1041 17.2188C14.6736 17.4201 14.2361 17.5208 13.7916 17.5208C13.5416 17.5208 13.2916 17.4896 13.0416 17.4271C12.7916 17.3646 12.5416 17.2708 12.2916 17.1458L11.125 16.5625C10.9583 16.4792 10.7812 16.4167 10.5937 16.375C10.4062 16.3333 10.2083 16.3125 9.99996 16.3125C9.79162 16.3125 9.59371 16.3333 9.40621 16.375C9.21871 16.4167 9.04163 16.4792 8.87496 16.5625L7.70829 17.1458C7.4444 17.2847 7.18399 17.3854 6.92704 17.4479C6.6701 17.5104 6.40968 17.5347 6.14579 17.5208ZM6.18746 15.8542C6.31246 15.8542 6.44093 15.8403 6.57288 15.8125C6.70482 15.7847 6.83329 15.7361 6.95829 15.6667L8.12496 15.0833C8.41662 14.9306 8.71871 14.8194 9.03121 14.75C9.34371 14.6806 9.65968 14.6458 9.97912 14.6458C10.2986 14.6458 10.618 14.6806 10.9375 14.75C11.2569 14.8194 11.5625 14.9306 11.8541 15.0833L13.0416 15.6667C13.1666 15.7361 13.2916 15.7847 13.4166 15.8125C13.5416 15.8403 13.6666 15.8542 13.7916 15.8542C14.0555 15.8542 14.3055 15.7847 14.5416 15.6458C14.7777 15.5069 15.0138 15.2986 15.25 15.0208C15.6944 14.4931 16.0416 13.8611 16.2916 13.125C16.5416 12.3889 16.6666 11.6319 16.6666 10.8542C16.6666 8.99306 16.0208 7.41319 14.7291 6.11458C13.4375 4.81597 11.8611 4.16667 9.99996 4.16667C8.13885 4.16667 6.56246 4.81944 5.27079 6.125C3.97913 7.43056 3.33329 9.01389 3.33329 10.875C3.33329 11.6667 3.46176 12.4375 3.71871 13.1875C3.97565 13.9375 4.33329 14.5694 4.79163 15.0833C5.02774 15.3611 5.2569 15.559 5.47913 15.6771C5.70135 15.7951 5.93746 15.8542 6.18746 15.8542ZM9.99996 12.5C10.4583 12.5 10.8507 12.3368 11.177 12.0104C11.5034 11.684 11.6666 11.2917 11.6666 10.8333C11.6666 10.7222 11.6562 10.6111 11.6354 10.5V10.5C11.5956 10.2876 11.6198 10.062 11.749 9.88881L12.1766 9.3158C12.3808 9.04221 12.791 9.04053 12.9479 9.34375V9.34375C12.9549 9.3573 12.9618 9.37093 12.9687 9.38464C13.1439 9.7353 13.4775 10 13.8695 10V10C14.4169 10 14.8391 9.50215 14.6443 8.99058C14.3491 8.21524 13.8739 7.55171 13.2187 7C12.2951 6.22222 11.2222 5.83333 9.99996 5.83333C8.77774 5.83333 7.70135 6.22569 6.77079 7.01042C6.1091 7.56841 5.63351 8.23349 5.34401 9.00567C5.15443 9.51134 5.57284 10 6.11288 10V10C6.51254 10 6.84991 9.72333 7.02187 9.36256C7.24253 8.8996 7.56162 8.50791 7.97913 8.1875C8.57635 7.72917 9.24996 7.5 9.99996 7.5C10.2361 7.5 10.4583 7.52083 10.6666 7.5625V7.5625C10.9839 7.62596 11.0865 7.9994 10.8941 8.25963L10.2706 9.10322C10.2314 9.15623 10.1691 9.18792 10.1041 9.17708V9.17708C10.0625 9.17014 10.0277 9.16667 9.99996 9.16667C9.54162 9.16667 9.14926 9.32986 8.82288 9.65625C8.49649 9.98264 8.33329 10.375 8.33329 10.8333C8.33329 11.2917 8.49649 11.684 8.82288 12.0104C9.14926 12.3368 9.54162 12.5 9.99996 12.5Z" fill="#0255F1"/>
</g>
</svg>
