<svg width="28" height="20" viewBox="0 0 28 20" fill="none" xmlns="http://www.w3.org/2000/svg">
<path fill-rule="evenodd" clip-rule="evenodd" d="M8.9334 1.33964C10.6462 0.350793 12.6137 -0.10795 14.5872 0.021422C16.5607 0.150794 18.4515 0.862471 20.0205 2.06645C21.5895 3.27044 22.7662 4.91265 23.4019 6.78543C24.0376 8.6582 24.1037 10.6774 23.5918 12.5877C23.4556 13.0958 22.9334 13.3973 22.4254 13.2611C21.9174 13.125 21.6159 12.6028 21.752 12.0947C22.1664 10.5483 22.113 8.91368 21.5984 7.39762C21.0838 5.88156 20.1311 4.55215 18.861 3.57749C17.5908 2.60283 16.0602 2.02671 14.4626 1.92198C12.865 1.81725 11.2722 2.18862 9.8857 2.98911C9.43021 3.25209 8.84778 3.09602 8.58481 2.64053C8.32184 2.18504 8.47791 1.60261 8.9334 1.33964ZM5.44086 6.73889C5.94889 6.87503 6.25037 7.39722 6.11423 7.90525C5.69982 9.45171 5.7533 11.0863 6.2679 12.6024C6.7825 14.1184 7.73512 15.4479 9.00527 16.4225C10.2754 17.3972 11.8061 17.9733 13.4037 18.078C15.0013 18.1827 16.594 17.8114 17.9806 17.0109C18.436 16.7479 19.0185 16.904 19.2814 17.3595C19.5444 17.815 19.3883 18.3974 18.9329 18.6604C17.2201 19.6492 15.2526 20.1079 13.2791 19.9786C11.3056 19.8492 9.41479 19.1375 7.84578 17.9335C6.27676 16.7296 5.10001 15.0873 4.46433 13.2146C3.82865 11.3418 3.76258 9.32258 4.2745 7.41226C4.41063 6.90423 4.93283 6.60275 5.44086 6.73889Z" fill="#0255F1"/>
<path fill-rule="evenodd" clip-rule="evenodd" d="M4.21247 6.17932C4.58438 5.80741 5.18735 5.80741 5.55926 6.17932L9.4928 10.1129C9.86471 10.4848 9.86471 11.0877 9.4928 11.4596C9.1209 11.8316 8.51792 11.8316 8.14602 11.4596L4.88587 8.1995L1.62571 11.4596C1.25381 11.8316 0.650833 11.8316 0.278928 11.4596C-0.0929761 11.0877 -0.0929761 10.4848 0.278928 10.1129L4.21247 6.17932ZM18.3732 8.53945C18.7451 8.16754 19.3481 8.16754 19.72 8.53945L22.9802 11.7996L26.2403 8.53945C26.6122 8.16754 27.2152 8.16754 27.5871 8.53945C27.959 8.91135 27.959 9.51433 27.5871 9.88623L23.6536 13.8198C23.2817 14.1917 22.6787 14.1917 22.3068 13.8198L18.3732 9.88623C18.0013 9.51433 18.0013 8.91135 18.3732 8.53945Z" fill="#0255F1"/>
</svg>
