<svg width="20" height="20" viewBox="0 0 20 20" fill="none" xmlns="http://www.w3.org/2000/svg">
<path d="M10 15C8.67437 14.9985 7.40345 14.4713 6.46609 13.5339C5.52873 12.5965 5.00147 11.3256 5 10C5 7.24333 7.24333 5 10 5C12.7567 5 15 7.24333 15 10C15 12.7567 12.7567 15 10 15Z" fill="#0255F1"/>
<path fill-rule="evenodd" clip-rule="evenodd" d="M10 0C10.1473 0 10.2887 0.0585317 10.3928 0.162719C10.497 0.266905 10.5556 0.408213 10.5556 0.555556V2.77778C10.5556 2.92512 10.497 3.06643 10.3928 3.17061C10.2887 3.2748 10.1473 3.33333 10 3.33333C9.85266 3.33333 9.71135 3.2748 9.60716 3.17061C9.50298 3.06643 9.44444 2.92512 9.44444 2.77778V0.555556C9.44444 0.408213 9.50298 0.266905 9.60716 0.162719C9.71135 0.0585317 9.85266 0 10 0ZM16.6667 10C16.6667 9.85266 16.7252 9.71135 16.8294 9.60716C16.9336 9.50298 17.0749 9.44444 17.2222 9.44444H19.4444C19.5918 9.44444 19.7331 9.50298 19.8373 9.60716C19.9415 9.71135 20 9.85266 20 10C20 10.1473 19.9415 10.2887 19.8373 10.3928C19.7331 10.497 19.5918 10.5556 19.4444 10.5556H17.2222C17.0749 10.5556 16.9336 10.497 16.8294 10.3928C16.7252 10.2887 16.6667 10.1473 16.6667 10ZM0 10C0 9.85266 0.0585317 9.71135 0.162719 9.60716C0.266905 9.50298 0.408213 9.44444 0.555556 9.44444H2.77778C2.92512 9.44444 3.06643 9.50298 3.17061 9.60716C3.2748 9.71135 3.33333 9.85266 3.33333 10C3.33333 10.1473 3.2748 10.2887 3.17061 10.3928C3.06643 10.497 2.92512 10.5556 2.77778 10.5556H0.555556C0.408213 10.5556 0.266905 10.497 0.162719 10.3928C0.0585317 10.2887 0 10.1473 0 10ZM10 16.6667C10.1473 16.6667 10.2887 16.7252 10.3928 16.8294C10.497 16.9336 10.5556 17.0749 10.5556 17.2222V19.4444C10.5556 19.5918 10.497 19.7331 10.3928 19.8373C10.2887 19.9415 10.1473 20 10 20C9.85266 20 9.71135 19.9415 9.60716 19.8373C9.50298 19.7331 9.44444 19.5918 9.44444 19.4444V17.2222C9.44444 17.0749 9.50298 16.9336 9.60716 16.8294C9.71135 16.7252 9.85266 16.6667 10 16.6667ZM17.06 2.94C17.1117 2.99161 17.1528 3.05291 17.1808 3.12041C17.2088 3.1879 17.2232 3.26026 17.2232 3.33333C17.2232 3.40641 17.2088 3.47877 17.1808 3.54626C17.1528 3.61375 17.1117 3.67506 17.06 3.72667L15.3933 5.39333C15.289 5.49765 15.1475 5.55626 15 5.55626C14.8525 5.55626 14.711 5.49765 14.6067 5.39333C14.5023 5.28902 14.4437 5.14753 14.4437 5C14.4437 4.85247 14.5023 4.71099 14.6067 4.60667L16.2733 2.94C16.3249 2.88826 16.3862 2.84722 16.4537 2.81921C16.5212 2.7912 16.5936 2.77679 16.6667 2.77679C16.7397 2.77679 16.8121 2.7912 16.8796 2.81921C16.9471 2.84722 17.0084 2.88826 17.06 2.94ZM5.39333 14.6067C5.44507 14.6583 5.48612 14.7196 5.51413 14.7871C5.54213 14.8546 5.55655 14.9269 5.55655 15C5.55655 15.0731 5.54213 15.1454 5.51413 15.2129C5.48612 15.2804 5.44507 15.3417 5.39333 15.3933L3.72667 17.06C3.62235 17.1643 3.48086 17.2229 3.33333 17.2229C3.1858 17.2229 3.04432 17.1643 2.94 17.06C2.83568 16.9557 2.77708 16.8142 2.77708 16.6667C2.77708 16.5191 2.83568 16.3777 2.94 16.2733L4.60667 14.6067C4.65827 14.5549 4.71958 14.5139 4.78707 14.4859C4.85457 14.4579 4.92693 14.4435 5 14.4435C5.07308 14.4435 5.14543 14.4579 5.21293 14.4859C5.28042 14.5139 5.34173 14.5549 5.39333 14.6067ZM2.94 2.94C2.99161 2.88826 3.05291 2.84722 3.12041 2.81921C3.1879 2.7912 3.26026 2.77679 3.33333 2.77679C3.40641 2.77679 3.47877 2.7912 3.54626 2.81921C3.61375 2.84722 3.67506 2.88826 3.72667 2.94L5.39333 4.60667C5.49765 4.71099 5.55626 4.85247 5.55626 5C5.55626 5.14753 5.49765 5.28902 5.39333 5.39333C5.28902 5.49765 5.14753 5.55626 5 5.55626C4.85247 5.55626 4.71099 5.49765 4.60667 5.39333L2.94 3.72667C2.88826 3.67506 2.84722 3.61375 2.81921 3.54626C2.7912 3.47877 2.77679 3.40641 2.77679 3.33333C2.77679 3.26026 2.7912 3.1879 2.81921 3.12041C2.84722 3.05291 2.88826 2.99161 2.94 2.94ZM14.6067 14.6067C14.6583 14.5549 14.7196 14.5139 14.7871 14.4859C14.8546 14.4579 14.9269 14.4435 15 14.4435C15.0731 14.4435 15.1454 14.4579 15.2129 14.4859C15.2804 14.5139 15.3417 14.5549 15.3933 14.6067L17.06 16.2733C17.1117 16.325 17.1526 16.3863 17.1806 16.4538C17.2085 16.5213 17.2229 16.5936 17.2229 16.6667C17.2229 16.7397 17.2085 16.812 17.1806 16.8795C17.1526 16.947 17.1117 17.0083 17.06 17.06C17.0083 17.1117 16.947 17.1526 16.8795 17.1806C16.812 17.2085 16.7397 17.2229 16.6667 17.2229C16.5936 17.2229 16.5213 17.2085 16.4538 17.1806C16.3863 17.1526 16.325 17.1117 16.2733 17.06L14.6067 15.3933C14.5549 15.3417 14.5139 15.2804 14.4859 15.2129C14.4579 15.1454 14.4435 15.0731 14.4435 15C14.4435 14.9269 14.4579 14.8546 14.4859 14.7871C14.5139 14.7196 14.5549 14.6583 14.6067 14.6067Z" fill="#0255F1"/>
</svg>
