<svg width="20" height="23" viewBox="0 0 20 23" fill="none" xmlns="http://www.w3.org/2000/svg">
<path d="M4 22H3C3 22.5523 3.44772 23 4 23V22ZM16 22V23C16.5523 23 17 22.5523 17 22H16ZM19 7.5V8.5C19.5523 8.5 20 8.05228 20 7.5H19ZM19 4H20C20 3.44772 19.5523 3 19 3V4ZM1 4V3C0.447715 3 0 3.44772 0 4H1ZM1 7.5H0C0 8.05228 0.447715 8.5 1 8.5L1 7.5ZM8 11.5C8 10.9477 7.55228 10.5 7 10.5C6.44772 10.5 6 10.9477 6 11.5H8ZM6 17.5C6 18.0523 6.44772 18.5 7 18.5C7.55228 18.5 8 18.0523 8 17.5H6ZM11 11.5C11 10.9477 10.5523 10.5 10 10.5C9.44771 10.5 9 10.9477 9 11.5H11ZM9 17.5C9 18.0523 9.44771 18.5 10 18.5C10.5523 18.5 11 18.0523 11 17.5H9ZM14 11.5C14 10.9477 13.5523 10.5 13 10.5C12.4477 10.5 12 10.9477 12 11.5H14ZM12 17.5C12 18.0523 12.4477 18.5 13 18.5C13.5523 18.5 14 18.0523 14 17.5H12ZM3 7.5V22H5V7.5H3ZM4 23H16V21H4V23ZM17 22V7.5H15V22H17ZM16 6.5H4V8.5H16V6.5ZM16 8.5H19V6.5H16V8.5ZM20 7.5V4H18V7.5H20ZM0 4V7.5H2V4H0ZM1 8.5H4V6.5H1V8.5ZM8 3H1V5H8V3ZM9 4V3H7V4H9ZM19 3H12V5H19V3ZM12 3H8V5H12V3ZM11 3V4H13V3H11ZM6 11.5V17.5H8V11.5H6ZM9 11.5V17.5H11V11.5H9ZM12 11.5V17.5H14V11.5H12ZM13 3C13 1.34315 11.6569 0 10 0V2C10.5523 2 11 2.44772 11 3H13ZM9 3C9 2.44772 9.44771 2 10 2V0C8.34315 0 7 1.34315 7 3H9Z" fill="black"/>
</svg>
